<svg width="300" height="51" viewBox="0 0 300 51" fill="none" xmlns="http://www.w3.org/2000/svg">
<path fill-rule="evenodd" clip-rule="evenodd" d="M26.2291 0.00131862C26.2526 0.00222648 26.276 0.00350424 26.2993 0.00530408C26.3277 0.00752208 26.356 0.0104935 26.3845 0.0140721C26.4075 0.0169388 26.4303 0.0207099 26.4531 0.0244343C26.4745 0.0279383 26.4963 0.0297125 26.5177 0.0339994C26.5298 0.0364295 26.5415 0.040109 26.5535 0.0427674C26.5903 0.0509172 26.6267 0.060304 26.6627 0.0706656C26.6903 0.0785671 26.7171 0.0878666 26.744 0.0969697C26.7668 0.104668 26.7894 0.11231 26.8118 0.120882C26.8636 0.140754 26.9141 0.162836 26.9632 0.187041C26.9757 0.193174 26.9884 0.19896 27.0007 0.205374C27.0264 0.218778 27.0515 0.233074 27.0764 0.24762C27.0988 0.260644 27.1208 0.274308 27.1426 0.288272C27.1631 0.301456 27.1833 0.314971 27.2032 0.328924C27.2416 0.355746 27.2792 0.38366 27.3156 0.413415C27.3262 0.422164 27.3362 0.43154 27.3466 0.440516C27.379 0.468291 27.4103 0.497321 27.4407 0.527399C27.4487 0.535349 27.4568 0.543222 27.4646 0.551312C27.5385 0.627073 27.6059 0.709604 27.6663 0.798411C27.6727 0.807923 27.6791 0.817475 27.6854 0.827106C27.7178 0.876759 27.7493 0.927666 27.7771 0.980945L52.1107 47.7033C52.2446 47.9604 52.3124 48.2412 52.3164 48.5219C52.3165 48.5333 52.3164 48.5448 52.3164 48.5562C52.3159 48.6587 52.3069 48.761 52.2892 48.8623C52.2856 48.8836 52.281 48.9048 52.2765 48.926C52.2686 48.9637 52.2597 49.0012 52.2494 49.0384C52.2446 49.0557 52.2404 49.0731 52.235 49.0902C52.2227 49.1301 52.2079 49.1691 52.1928 49.2082C52.1855 49.2271 52.1785 49.2461 52.1705 49.2648C52.1571 49.2963 52.1426 49.3272 52.1274 49.3581C52.119 49.3752 52.1117 49.3929 52.1027 49.4099C52.0963 49.422 52.0879 49.433 52.0812 49.4449C52.0716 49.4621 52.0628 49.4798 52.0525 49.4968C52.042 49.5142 52.0301 49.5308 52.019 49.5478C52.0134 49.5564 52.0088 49.5656 52.0031 49.5741C51.9735 49.6179 51.942 49.6601 51.909 49.7008C51.8963 49.7166 51.8832 49.7318 51.87 49.747C51.85 49.7701 51.8288 49.792 51.8078 49.814C51.7916 49.8309 51.7759 49.848 51.7592 49.8642C51.7285 49.8939 51.6968 49.9222 51.6643 49.9495C51.6456 49.9652 51.6262 49.98 51.6069 49.9949C51.5813 50.0148 51.5554 50.0339 51.5288 50.0523C51.5158 50.0614 51.503 50.0708 51.4898 50.0794C51.4504 50.1052 51.4098 50.1286 51.3686 50.1512C51.3501 50.1613 51.3316 50.1712 51.3128 50.1807C51.2854 50.1945 51.258 50.2081 51.2299 50.2205C51.2137 50.2277 51.1977 50.2353 51.1813 50.242C51.1369 50.2602 51.0916 50.276 51.0458 50.2907C51.0294 50.2959 51.0129 50.3002 50.9964 50.305C50.9582 50.316 50.9198 50.326 50.8808 50.3345C50.8691 50.3371 50.8575 50.3401 50.8457 50.3425C50.801 50.3513 50.7558 50.3585 50.7102 50.364C50.6853 50.367 50.6603 50.3692 50.6353 50.3712C50.6114 50.373 50.5875 50.3742 50.5635 50.3752C50.5375 50.3762 50.5115 50.3776 50.4854 50.3775H1.82454C1.80891 50.3775 1.79309 50.3764 1.77752 50.376C1.74449 50.3751 1.71161 50.373 1.67868 50.3704C1.64017 50.3673 1.60188 50.3639 1.56389 50.3584C1.54603 50.3558 1.52828 50.3527 1.51049 50.3496C1.47672 50.3437 1.4433 50.3367 1.41006 50.3289C1.39009 50.3243 1.3701 50.3199 1.35027 50.3146C1.31018 50.3038 1.27064 50.2914 1.23151 50.2779C1.21012 50.2706 1.18888 50.2629 1.16774 50.2548C1.14051 50.2443 1.1139 50.2323 1.08723 50.2205C1.04837 50.2034 1.01024 50.1847 0.972453 50.1647C0.953332 50.1546 0.93381 50.1452 0.915062 50.1344C0.890811 50.1205 0.867026 50.1057 0.843324 50.0906C0.827675 50.0806 0.812437 50.07 0.797092 50.0595C0.748958 50.0266 0.702189 49.9914 0.656804 49.9535C0.650431 49.9482 0.643977 49.943 0.637674 49.9376C0.611954 49.9154 0.586651 49.8927 0.56195 49.869C0.532467 49.8407 0.503506 49.8117 0.475864 49.7813C0.470566 49.7755 0.464365 49.7705 0.459125 49.7646C0.446224 49.75 0.434811 49.734 0.422459 49.7191C0.406651 49.7001 0.391309 49.6807 0.376228 49.661C0.343427 49.6181 0.313031 49.5743 0.284562 49.5294C0.277695 49.5186 0.270495 49.5078 0.263838 49.4968L0.261446 49.4928C0.244735 49.465 0.229512 49.4367 0.214418 49.4083C0.205585 49.3917 0.1972 49.3749 0.188911 49.3581C0.14384 49.2665 0.106082 49.1729 0.0773179 49.0767C0.0739698 49.0656 0.0708856 49.0544 0.0677528 49.0432C0.0550405 48.9975 0.0441627 48.9516 0.0350721 48.9053C0.0294396 48.877 0.0242083 48.8486 0.0199273 48.82C0.0166746 48.798 0.0136059 48.776 0.0111593 48.7539C0.00621931 48.7101 0.00258085 48.6663 0.000797092 48.6223L0 48.6176V48.4916C0.000367439 48.4797 0.000992387 48.4677 0.00159418 48.4558C0.00207683 48.4465 0.00256496 48.4372 0.00318837 48.4279C0.0195374 48.1788 0.0867207 47.9317 0.20565 47.7033L24.5401 0.980945L24.5425 0.975365C24.5798 0.904386 24.6219 0.836736 24.6676 0.772107L24.6716 0.766527C24.6931 0.73629 24.7154 0.706755 24.7386 0.67805C24.7535 0.65956 24.7692 0.641699 24.7848 0.623848C24.8485 0.550941 24.9175 0.483584 24.9912 0.422183C25.0008 0.414218 25.0102 0.406037 25.0199 0.398271C25.148 0.296014 25.2894 0.211744 25.44 0.147187C25.4517 0.142153 25.4633 0.136834 25.4751 0.132042C25.5159 0.115534 25.5573 0.100151 25.5994 0.0866075C25.6209 0.0796441 25.643 0.0744445 25.6648 0.0682744C25.6941 0.0600346 25.7235 0.0519401 25.7533 0.0451587C25.7744 0.0403055 25.7956 0.0357092 25.817 0.0316081C25.8413 0.0269862 25.8658 0.0232928 25.8904 0.0196517C25.937 0.0126756 25.984 0.00703264 26.0314 0.0037099C26.0452 0.00275325 26.0591 0.00276142 26.0729 0.00211572C26.1247 -0.000316545 26.1767 -0.000745111 26.2291 0.00131862ZM6.62463 46.7221H43.192L20.337 34.5106L6.62463 46.7221ZM22.1305 31.3254L46.1453 44.1554L26.9337 7.26761L22.1305 31.3254ZM8.03788 40.5693L18.4041 31.3382L21.8595 14.0317L8.03788 40.5693Z" style="fill:rgb(var(--color-logo))"/>
<path fill-rule="evenodd" clip-rule="evenodd" d="M124.23 20.5296C125.974 20.5297 127.62 20.8113 129.167 21.3761C130.727 21.9288 132.103 22.789 133.294 23.9555C134.497 25.1222 135.443 26.6085 136.131 28.4137C136.818 30.2068 137.162 32.3446 137.162 34.8255V36.8692H117.452C117.472 38.4443 117.772 39.8022 118.353 40.9416C118.955 42.108 119.796 43.0047 120.877 43.631C121.957 44.2449 123.223 44.5523 124.672 44.5524C125.642 44.5524 126.521 44.4169 127.307 44.1467C128.092 43.8643 128.774 43.4528 129.351 42.9128C129.928 42.3724 130.364 41.7024 130.659 40.9041L136.886 41.604C136.493 43.2495 135.744 44.6865 134.638 45.9146C133.545 47.1304 132.146 48.0768 130.439 48.7523C128.731 49.4155 126.778 49.747 124.58 49.747C121.743 49.747 119.292 49.1572 117.229 47.9783C115.178 46.787 113.6 45.1047 112.494 42.9311C111.389 40.745 110.836 38.1711 110.836 35.2113C110.837 32.3008 111.389 29.7463 112.494 27.548C113.612 25.3373 115.172 23.6174 117.174 22.3892C119.176 21.149 121.528 20.5296 124.23 20.5296ZM124.322 25.7243C122.959 25.7243 121.761 26.0552 120.729 26.7183C119.698 27.3691 118.894 28.2294 118.316 29.2976C117.812 30.24 117.529 31.2659 117.465 32.3744H130.77C130.758 31.0974 130.481 29.9615 129.94 28.9669C129.4 27.9599 128.645 27.1671 127.675 26.5899C126.717 26.0127 125.599 25.7243 124.322 25.7243Z" style="fill:rgb(var(--color-logo))"/>
<path fill-rule="evenodd" clip-rule="evenodd" d="M199.464 20.5296C201.208 20.5296 202.854 20.8113 204.402 21.3761C205.961 21.9288 207.337 22.789 208.528 23.9555C209.732 25.1222 210.677 26.6085 211.365 28.4137C212.053 30.2068 212.396 32.3446 212.396 34.8255V36.8692H192.687C192.706 38.4444 193.007 39.8022 193.588 40.9416C194.19 42.108 195.031 43.0047 196.112 43.631C197.192 44.2449 198.458 44.5524 199.907 44.5524C200.877 44.5524 201.755 44.4168 202.541 44.1467C203.327 43.8642 204.009 43.4531 204.586 42.9128C205.164 42.3724 205.6 41.7024 205.894 40.9041L212.121 41.604C211.728 43.2495 210.979 44.6866 209.874 45.9146C208.781 47.1305 207.38 48.0768 205.673 48.7523C203.966 49.4155 202.013 49.747 199.814 49.747C196.977 49.747 194.528 49.1572 192.464 47.9783C190.413 46.787 188.835 45.1048 187.73 42.9311C186.624 40.745 186.071 38.1711 186.071 35.2113C186.071 32.3008 186.624 29.7463 187.73 27.548C188.847 25.3374 190.407 23.6174 192.408 22.3892C194.41 21.1489 196.762 20.5296 199.464 20.5296ZM199.557 25.7243C198.194 25.7243 196.995 26.0551 195.964 26.7183C194.932 27.3691 194.128 28.2293 193.551 29.2976C193.047 30.24 192.764 31.2659 192.7 32.3744H206.004C205.992 31.0973 205.715 29.9616 205.175 28.9669C204.634 27.9599 203.88 27.1671 202.909 26.5899C201.952 26.0128 200.834 25.7243 199.557 25.7243Z" style="fill:rgb(var(--color-logo))"/>
<path d="M85.9353 38.8046H86.3769L97.5784 11.4651H105.942V49.1947H99.3838V23.2732H99.0331L88.6064 49.0839H83.7058L73.2791 23.219H72.9292V49.1947H66.3707V11.4651H74.7346L85.9353 38.8046Z" style="fill:rgb(var(--color-logo))"/>
<path d="M172.716 20.5296C175.32 20.5297 177.445 21.3518 179.091 22.9974C180.736 24.6431 181.558 27.0445 181.558 30.2007V49.1947H174.872V31.233C174.872 29.4767 174.405 28.1928 173.471 27.3822C172.538 26.5596 171.396 26.1484 170.045 26.1483C168.437 26.1484 167.177 26.6512 166.269 27.658C165.372 28.6528 164.923 29.9496 164.923 31.5462V49.1947H158.384V30.9564C158.384 29.495 157.942 28.3275 157.057 27.4556C156.185 26.5837 155.043 26.1483 153.631 26.1483C152.673 26.1483 151.801 26.3938 151.015 26.8848C150.229 27.3637 149.603 28.0455 149.136 28.9294C148.669 29.8013 148.436 30.8212 148.436 31.9878V49.1947H141.767V20.8979H148.14V25.7059H148.472C149.061 24.0849 150.038 22.8198 151.401 21.911C152.764 20.9899 154.392 20.5297 156.283 20.5296C158.199 20.5297 159.814 20.9961 161.128 21.9293C162.455 22.8504 163.389 24.1094 163.929 25.7059H164.223C164.85 24.1339 165.906 22.8811 167.393 21.9477C168.891 21.0021 170.666 20.5297 172.716 20.5296Z" style="fill:rgb(var(--color-logo))"/>
<path d="M227.557 31.343L233.36 20.8979H240.416L231.886 35.0455L240.563 49.1947H233.545L227.557 39.0062L221.625 49.1947H214.551L223.173 35.0455L214.773 20.8979H221.847L227.557 31.343Z" style="fill:rgb(var(--color-logo))"/>
<path fill-rule="evenodd" clip-rule="evenodd" d="M289.234 49.1947H281.938L278.812 39.891H264.628L261.508 49.1947H254.213L267.495 11.4651H275.932L289.234 49.1947ZM266.47 34.4014H276.967L271.861 19.2025H271.567L266.47 34.4014Z" style="fill:rgb(var(--color-logo))"/>
<path d="M300 49.1947H293.165V11.4651H300V49.1947Z" style="fill:rgb(var(--color-logo))"/>
</svg>
